# xmcd
#
# Track frame offsets:
#	150
#	12246
#	24034
#	42379
#	58763
#	73682
#	87516
#	98971
#	113435
#	131480
#	143128
#	151100
#	164262
#	179865
#
# Disc length: 2587 seconds
#
# Revision: 1
# Processed by: cddbd v1.5.2PL0 Copyright (c) Steve Scherf et al.
# Submitted via: audiograbber 1.83.01
#
DISCID=b60a190e
DTITLE=charlie louvin - charlie louvin - hickory wind: live the gram parsons
DYEAR=1900
DGENRE=
TTITLE0=long journey home
TTITLE1=must you throw dirt in my face
TTITLE2=the kind of man i am
TTITLE3=hickory wind
TTITLE4=if you love me, stay away
TTITLE5=wreck on the highway
TTITLE6=the christian life
TTITLE7=i still miss someone
TTITLE8=think i'll go somewhere and cry myself to sleep
TTITLE9=workin' man blues
TTITLE10=let her go, god bless her
TTITLE11=please don't tell me how the story ends
TTITLE12=i don't love you anymore
TTITLE13=cash on the barrelhead
EXTD=
EXTT0=
EXTT1=
EXTT2=
EXTT3=
EXTT4=
EXTT5=
EXTT6=
EXTT7=
EXTT8=
EXTT9=
EXTT10=
EXTT11=
EXTT12=
EXTT13=
PLAYORDER=
